<svg width="22" height="22" viewBox="0 0 22 22" xmlns="http://www.w3.org/2000/svg"><title>calendar</title><g stroke="#4ABDAC" fill="none" fill-rule="evenodd"><path d="M4.75 2.667H1.417c-.25 0-.417.166-.417.416v17.5c0 .25.167.417.417.417h19.166c.25 0 .417-.167.417-.417v-17.5c0-.25-.167-.416-.417-.416H17.25M15.583 2H6.417"/><path d="M16 1c-.25 0-.417.167-.417.417v2.5c0 .25.167.416.417.416h.833c.25 0 .417-.166.417-.416v-2.5c0-.25-.167-.417-.417-.417H16zM5.167 1c-.25 0-.417.167-.417.417v2.5c0 .25.167.416.417.416H6c.25 0 .417-.166.417-.416v-2.5C6.417 1.167 6.25 1 6 1h-.833zM1 6h20M3.5 9.75h15v8.75h-15zm0 2.25h15m-15 3h15M11 9.75v8.75M7 9.75v8.75m7-8.75v8.75"/></g></svg>