<?xml version="1.0" encoding="UTF-8" standalone="no"?>
<svg width="35px" height="34px" viewBox="0 0 35 34" version="1.1" xmlns="http://www.w3.org/2000/svg" xmlns:xlink="http://www.w3.org/1999/xlink">
    <!-- Generator: Sketch 40 (33762) - http://www.bohemiancoding.com/sketch -->
    <title>chat</title>
    <desc>Created with Sketch.</desc>
    <defs></defs>
    <g id="Teacher" stroke="none" stroke-width="1" fill="none" fill-rule="evenodd">
        <g id="Balance-History" transform="translate(-237.000000, -147.000000)">
            <g id="Group" transform="translate(220.000000, 129.000000)">
                <g id="chat" transform="translate(17.000000, 18.000000)">
                    <g id="Layer_1">
                        <rect id="Rectangle-path" x="0" y="0" width="35" height="35"></rect>
                        <path d="M13.3,0.7 C6.37,0.7 0.7,5.67 0.7,11.83 C0.7,14.98 2.17,17.85 4.55,19.88 C3.92,22.68 0.56,23.8 0.77,24.57 C2.87,25.76 8.54,23.45 10.36,22.68 C11.27,22.89 12.25,22.96 13.23,22.96 C20.16,22.96 25.83,17.99 25.83,11.83 C25.83,5.67 20.23,0.7 13.3,0.7 L13.3,0.7 Z" id="Shape" stroke="#FC4A1A"></path>
                        <path d="M9.73,22.96 C11.34,27.44 16.1,30.66 21.7,30.66 C22.68,30.66 23.66,30.52 24.57,30.38 C26.39,31.22 32.06,33.46 34.16,32.27 C34.37,31.5 31.08,30.31 30.38,27.58 C32.76,25.55 34.23,22.68 34.23,19.53 C34.23,14.56 30.52,10.29 25.41,8.89" id="Shape" stroke="#FC4A1A"></path>
                    </g>
                </g>
            </g>
        </g>
    </g>
</svg>