<?xml version="1.0" encoding="UTF-8" standalone="no"?>
<svg width="22px" height="22px" viewBox="0 0 22 22" version="1.1" xmlns="http://www.w3.org/2000/svg" xmlns:xlink="http://www.w3.org/1999/xlink">
    <!-- Generator: Sketch 40 (33762) - http://www.bohemiancoding.com/sketch -->
    <title>us dollar</title>
    <desc>Created with Sketch.</desc>
    <defs></defs>
    <g id="Teacher" stroke="none" stroke-width="1" fill="none" fill-rule="evenodd">
        <g id="Settings-Information" transform="translate(-768.000000, -400.000000)">
            <g id="us-dollar" transform="translate(769.000000, 401.000000)">
                <g id="Layer_1">
                    <path d="M13.5652174,12.4782609 C13.5652174,8.56521739 7.60869565,10.5652174 7.60869565,7.56521739 C7.60869565,6.56521739 8,5.39130435 10.0434783,5.39130435 C12.1304348,5.39130435 12.3913043,7.04347826 12.4347826,7.7826087 L13.3478261,7.7826087 C13.4347826,6.56521739 12.5652174,4.7826087 10.4782609,4.69565217 L10.4782609,3.47826087 L9.60869565,3.47826087 L9.60869565,4.69565217 C7.17391304,4.82608696 6.73913043,6.65217391 6.73913043,7.47826087 C6.73913043,11.5652174 12.6956522,9.39130435 12.6956522,12.4782609 C12.6956522,12.8695652 12.6086957,14.6086957 10.0434783,14.6086957 C9.95652174,14.6086957 7.30434783,14.6086957 7.39130435,11.8695652 L6.47826087,11.8695652 C6.56521739,14.7826087 8.43478261,15.173913 9.60869565,15.3043478 L9.60869565,16.5217391 L10.4782609,16.5217391 L10.4782609,15.3043478 C13.3913043,15.0869565 13.5652174,12.9130435 13.5652174,12.4782609 L13.5652174,12.4782609 Z" id="Shape" fill="#4ABDAC"></path>
                    <circle id="Oval" stroke="#4ABDAC" cx="10" cy="10" r="10"></circle>
                </g>
            </g>
        </g>
    </g>
</svg>