<svg width="19" height="20" viewBox="0 0 19 20" xmlns="http://www.w3.org/2000/svg"><title>email</title><path d="M18.417 14.7h-.611a.2.2 0 0 0-.164.085 10.202 10.202 0 0 1-1.407 1.615c-.535.5-1.134.942-1.782 1.314a9.332 9.332 0 0 1-2.067.87 8.319 8.319 0 0 1-2.282.312c-1.192 0-2.34-.193-3.412-.574a8.13 8.13 0 0 1-2.825-1.697c-.808-.747-1.457-1.69-1.93-2.8-.474-1.111-.715-2.42-.715-3.891 0-1.226.227-2.384.675-3.442a8.732 8.732 0 0 1 1.87-2.791 8.84 8.84 0 0 1 2.817-1.883c1.077-.456 2.261-.688 3.52-.688 1.122 0 2.18.18 3.145.532a7.501 7.501 0 0 1 2.497 1.487 6.837 6.837 0 0 1 1.638 2.297c.394.891.593 1.882.593 2.946 0 .944-.165 1.835-.49 2.648a7.952 7.952 0 0 1-1.23 2.125 6.159 6.159 0 0 1-1.607 1.403c-.567.333-1.114.502-1.625.502-.304 0-.529-.06-.667-.177a.735.735 0 0 1-.25-.486c-.032-.23-.006-.508.076-.826a8.43 8.43 0 0 1 .364-1.08l2.948-7.647a.2.2 0 0 0-.187-.272h-.558a.2.2 0 0 0-.188.131l-.485 1.333a3.18 3.18 0 0 0-1.27-1.344c-.701-.415-1.504-.625-2.385-.625a4.98 4.98 0 0 0-2.682.761 7.259 7.259 0 0 0-2.048 1.925A9.527 9.527 0 0 0 4.39 9.299a8.311 8.311 0 0 0-.462 2.653 4.238 4.238 0 0 0 1.089 2.858c.335.363.74.656 1.205.87 1.018.468 2.257.4 3.481-.02.544-.186 1.041-.526 1.483-1.012.04.32.176.6.409.832.347.347.81.523 1.376.523.67 0 1.369-.206 2.078-.61.7-.4 1.343-.951 1.913-1.64a8.872 8.872 0 0 0 1.4-2.404 7.98 7.98 0 0 0 .545-2.955c0-1.244-.234-2.39-.695-3.403a7.677 7.677 0 0 0-1.895-2.59 8.492 8.492 0 0 0-2.8-1.632A10.156 10.156 0 0 0 10.103.2C8.773.2 7.497.446 6.31.932a9.812 9.812 0 0 0-3.13 2.033 9.592 9.592 0 0 0-2.116 3.078C.551 7.223.291 8.532.291 9.934c0 1.702.287 3.196.855 4.438.567 1.242 1.32 2.28 2.24 3.082.92.802 1.98 1.4 3.151 1.779a11.6 11.6 0 0 0 3.567.567c.828 0 1.664-.114 2.483-.339a10.466 10.466 0 0 0 2.342-.961 10.52 10.52 0 0 0 2.057-1.516 9.328 9.328 0 0 0 1.602-1.982.199.199 0 0 0 .002-.2.198.198 0 0 0-.173-.102zm-4.805-7.512l-1.861 4.824c-.24.618-.521 1.132-.834 1.53a4.463 4.463 0 0 1-.977.94c-.333.225-.682.38-1.036.462-.82.192-1.607.17-2.252-.108a2.813 2.813 0 0 1-.942-.658 3.105 3.105 0 0 1-.624-.986 3.325 3.325 0 0 1-.225-1.24c0-.72.135-1.494.402-2.301a8.66 8.66 0 0 1 1.129-2.259 6.632 6.632 0 0 1 1.74-1.714 3.863 3.863 0 0 1 2.186-.67c.32 0 .658.038 1.005.114.342.076.672.203.98.377.305.173.576.403.808.684.217.265.385.603.501 1.005z" fill="#4ABDAC" fill-rule="evenodd"/></svg>