<?xml version="1.0" encoding="UTF-8" standalone="no"?>
<svg width="20px" height="20px" viewBox="0 0 20 20" version="1.1" xmlns="http://www.w3.org/2000/svg" xmlns:xlink="http://www.w3.org/1999/xlink">
    <!-- Generator: Sketch 40.1 (33804) - http://www.bohemiancoding.com/sketch -->
    <title>euro</title>
    <desc>Created with Sketch.</desc>
    <defs></defs>
    <g id="Teacher" stroke="none" stroke-width="1" fill="none" fill-rule="evenodd">
        <g id="Settings-Information" transform="translate(-884.000000, -273.000000)" fill="#4ABDAC">
            <g id="euro" transform="translate(884.000000, 273.000000)">
                <path d="M10,0 C4.48208792,0 0,4.48208792 0,10 C0,15.5179121 4.48208792,20 10,20 C15.5179121,20 20,15.5179121 20,10 C20,4.48208792 15.5179121,0 10,0 L10,0 Z M10,0.833333333 C15.0675454,0.833333333 19.1666667,4.93245458 19.1666667,10 C19.1666667,15.0675454 15.0675454,19.1666667 10,19.1666667 C4.93245458,19.1666667 0.833333333,15.0675454 0.833333333,10 C0.833333333,4.93245458 4.93245458,0.833333333 10,0.833333333 L10,0.833333333 Z M10.5859375,4.86979167 C9.4609375,4.86979167 7.203125,5.37239583 6.53645833,8.7890625 L5.83333333,8.7890625 L5.5859375,9.4140625 L6.49739583,9.4140625 C6.45572917,9.5390625 6.45833333,9.87760417 6.45833333,9.9609375 L6.45833333,10.2473958 L5.83333333,10.2473958 L5.5859375,10.8723958 L6.49739583,10.8723958 C6.99739583,14.6223958 9.328125,15.078125 10.4947917,15.078125 C11.453125,15.078125 12.2552083,14.7916667 13.046875,14.1666667 L13.046875,13.0859375 C11.8802083,14.2942708 11.0859375,14.296875 10.5859375,14.296875 C9.66927083,14.296875 7.87760417,13.9140625 7.4609375,10.8723958 L11.4192708,10.8723958 L11.6666667,10.2473958 L7.36979167,10.2473958 L7.36979167,10.0390625 C7.36979167,9.83072917 7.38020833,9.6640625 7.421875,9.4140625 L11.9140625,9.4140625 L12.1614583,8.7890625 L7.5,8.7890625 C8.04166667,6.0390625 9.7109375,5.703125 10.5859375,5.703125 C11.4609375,5.703125 12.2135417,6.046875 12.8385417,6.796875 L13.203125,5.96354167 C12.6197917,5.25520833 11.7526042,4.86979167 10.5859375,4.86979167 L10.5859375,4.86979167 Z" id="Shape"></path>
            </g>
        </g>
    </g>
</svg>