<svg width="25" height="19" viewBox="0 0 25 19" xmlns="http://www.w3.org/2000/svg"><title>conference call</title><g stroke="#FFF" fill="none" fill-rule="evenodd"><path d="M14.411 12.664c-.047-.708-.047-1.18-.047-1.795.33-.141.85-1.227.944-2.077.236 0 .614-.284.756-1.228.047-.52-.142-.85-.33-.897.755-.945.613-4.817-2.173-4.817L13.183 1c-3.966 0-5.43 3.07-4.297 5.667-.142.094-.378.377-.33.897.094.944.519 1.18.755 1.228.095.897.661 1.936.992 2.077 0 .614 0 1.134-.047 1.795C9.5 14.647 4.494 14.08 4.258 18h16.15c-.236-3.92-5.241-3.353-5.997-5.336z"/><path d="M8.603 4.07c-.142-.048-.33-.048-.472-.048l-.331-.66c-3.022 0-4.156 2.36-3.258 4.39-.095.048-.284.284-.236.71.094.755.377.944.566.944.095.708.52 1.51.756 1.652 0 .473 0 .85-.047 1.417-.567 1.558-4.392 1.133-4.581 4.156h3.306m16.055-.048h3.306c-.19-3.022-3.967-2.597-4.534-4.155-.047-.52-.047-.897-.047-1.417.236-.142.661-.944.708-1.605.19 0 .473-.19.567-.945.047-.378-.094-.661-.236-.708.567-.756.472-3.73-1.653-3.73l-.283-.662c-.756 0-1.558.095-2.22.378"/></g></svg>