<svg width="21" height="22" viewBox="0 0 21 22" xmlns="http://www.w3.org/2000/svg"><title>guest</title><g stroke="#4ABDAC" fill="none" fill-rule="evenodd"><path d="M12.707 14.902v-2.048c.342-.195.927-1.366 1.025-2.39.292 0 .731-.293.829-1.366.049-.586-.195-.927-.39-1.025.488-1.366 1.414-5.61-1.708-6.049-.341-.585-1.17-.878-2.243-.878-4.342.098-4.83 3.269-3.903 6.927-.146.098-.439.44-.39 1.025.146 1.073.585 1.365.83 1.365.097 1.025.682 2.196 1.023 2.39v2.05C6.951 17.194 1.244 16.56 1 21h18.537c-.244-4.439-5.952-3.805-6.83-6.098z"/><path d="M12.707 14.902c0 .586-1.073 1.22-2.439 1.22s-2.439-.585-2.439-1.22"/></g></svg>