<svg width="75" height="50" viewBox="0 0 75 50" xmlns="http://www.w3.org/2000/svg"><title>logo BlubU 1 Copy 5</title><g fill="none" fill-rule="evenodd"><path d="M.218 32.213h1.198l.2.2v8.057c0 3.213 1.614 5.409 4.863 6.552.472.2 1.143.29 1.996.29 3.03 0 5.154-1.615 6.352-4.863.2-.472.29-1.144.29-1.997 0-3.03-1.615-5.154-4.863-6.352-.472-.2-1.144-.29-1.997-.29-2.45.345-3.684 1.234-3.684 2.686l-.09.599v2.468l-.2.2H3.085l-.181-.2v-2.178c0-2.36 1.252-3.974 3.775-4.864.399-.2.998-.29 1.796-.29 3.503 0 6.116 1.888 7.858 5.662.273 1.035.4 1.978.4 2.777 0 3.503-1.888 6.116-5.663 7.858-1.034.272-1.978.4-2.776.4-3.503 0-6.134-1.888-7.858-5.663-.273-1.034-.4-1.978-.4-2.776V32.43l.182-.218zm18.783 0h.799l.2.2v11.324c0 1.38.961 2.559 2.885 3.575l1.796.29c1.96 0 3.449-1.034 4.465-3.085h.998l.2.2c-1.234 2.777-3.158 4.174-5.771 4.174-2.686 0-4.574-1.488-5.663-4.464l-.09-.799V32.394l.181-.181zm13.375 4.864h.799l.2.2v6.46c0 1.38.961 2.559 2.885 3.575l1.797.29c2.268 0 3.793-1.233 4.573-3.683v-6.66l.2-.2h.798l.2.2v6.351c0 1.87-1.162 3.466-3.485 4.773-.853.327-1.633.49-2.377.49-2.686 0-4.573-1.488-5.662-4.464l-.091-.799v-6.352l.163-.181zm13.557-4.827h.817l.181.199v7.078h.09c1.162-1.58 2.723-2.36 4.701-2.36 3.14.418 5.045 1.906 5.68 4.447l.2 1.488c0 2.631-1.506 4.5-4.5 5.59l-1.489.2c-3.085-.164-4.972-1.634-5.68-4.429l-.2-1.87V32.432l.2-.182zm1.089 10.834c-.073 2.069 1.034 3.502 3.285 4.319l1.415.218c2.287 0 3.811-1.216 4.592-3.648l-.018-1.198c.09-1.87-1.107-3.266-3.576-4.192l-.925-.127c-2.396.054-3.993 1.288-4.773 3.72v.908z" fill="#E84E24"/><path d="M59.653 35.298h.98l.163.163v6.588c0 2.632 1.325 4.428 3.993 5.372.4.163.944.236 1.633.236 2.487 0 4.229-1.325 5.209-3.993.163-.399.236-.943.236-1.633v-6.588l.163-.163h.98l.163.163v6.588c0 3.158-1.651 5.39-4.972 6.679l-1.053.163h-1.633c-1.724 0-3.412-1.053-5.045-3.176-.654-1.198-.98-2.414-.98-3.666v-6.588l.163-.145z" stroke="#4FBAAA" stroke-width="2"/><g fill="#E94D27"><path d="M31.487 11.288c-.708 0-1.288-.58-1.288-1.288 0-.708.58-1.289 1.288-1.289.708 0 1.289.58 1.289 1.289 0 .707-.581 1.288-1.289 1.288zm0-1.833a.565.565 0 0 0-.563.563c0 .308.255.562.563.562a.565.565 0 0 0 .563-.562.565.565 0 0 0-.563-.563zm-5.481 1.833c-.707 0-1.288-.58-1.288-1.288 0-.708.58-1.289 1.288-1.289.708 0 1.289.58 1.289 1.289 0 .707-.58 1.288-1.289 1.288zm0-1.833a.565.565 0 0 0-.562.563c0 .308.254.562.562.562a.565.565 0 0 0 .563-.562.565.565 0 0 0-.563-.563z"/><path d="M19.364 27.64a.796.796 0 0 1-.49-.164c-.254-.181-.363-.508-.308-.816l.961-4.737a12.752 12.752 0 0 1-3.63-8.947c0-7.078 5.772-12.849 12.85-12.849 7.077 0 12.849 5.771 12.849 12.849s-5.772 12.849-12.85 12.849c-1.47 0-2.885-.236-4.264-.726l-4.737 2.45a.737.737 0 0 1-.38.09zm1.851-5.771l-.708 3.448 3.557-1.833a.79.79 0 0 1 .672-.037c1.288.49 2.631.744 4.029.744 6.188 0 11.215-5.027 11.215-11.215 0-6.189-5.027-11.216-11.215-11.216-6.189 0-11.216 5.027-11.216 11.216 0 3.085 1.234 5.953 3.448 8.094.2.2.29.508.218.799z"/></g><path d="M52.92 29.2c-.073 0-.145-.018-.218-.036-.09-.036-2.141-.78-3.32-1.252a8.567 8.567 0 0 1-3.957.98c-4.664 0-8.457-3.793-8.457-8.457 0-4.664 3.793-8.457 8.457-8.457 4.664 0 8.457 3.793 8.457 8.457 0 1.67-.49 3.285-1.398 4.664l1.035 3.267a.66.66 0 0 1-.163.653.563.563 0 0 1-.436.181zm-7.477-15.952c-3.956 0-7.187 3.23-7.187 7.187 0 3.956 3.23 7.186 7.187 7.186a7.156 7.156 0 0 0 3.593-.961.676.676 0 0 1 .563-.037c.58.236 1.56.6 2.341.89l-.726-2.342a.68.68 0 0 1 .09-.562 7.12 7.12 0 0 0 1.344-4.192c-.018-3.938-3.23-7.169-7.205-7.169z" fill="#4FBAAA"/><path d="M47.294 19.582a.736.736 0 0 1-.563-.236.844.844 0 0 1-.036-1.125l.036-.037c.436-.326.89-.217 1.126.037a.844.844 0 0 1 .036 1.125l-.036.036a.93.93 0 0 1-.563.2zm-.327-1.125c-.181.272-.108.508.019.635s.363.2.635.018c.181-.272.109-.508-.018-.635s-.382-.2-.636-.018zm-3.357 1.125a.736.736 0 0 1-.563-.236.844.844 0 0 1-.036-1.125l.036-.037c.436-.326.89-.217 1.126.037a.844.844 0 0 1 .036 1.125l-.036.036c-.2.145-.382.2-.563.2zm-.327-1.125c-.181.272-.109.508.018.635.128.127.363.2.636.018.181-.272.109-.508-.018-.635-.128-.127-.363-.2-.636-.018z" fill="#4FBAAA"/><path d="M28.747 19.328a6.667 6.667 0 0 1-6.243-4.356l.853-.308a5.767 5.767 0 0 0 5.39 3.756 5.767 5.767 0 0 0 5.39-3.756l.853.308a6.667 6.667 0 0 1-6.243 4.356z" fill="#E94D27"/><path d="M45.443 24.79a4.298 4.298 0 0 1-4.01-2.794l1.016-.382a3.197 3.197 0 0 0 2.994 2.087c1.325 0 2.54-.834 2.994-2.087l1.017.382a4.28 4.28 0 0 1-4.011 2.794z" fill="#4FBAAA"/></g></svg>