<?xml version="1.0" encoding="UTF-8" standalone="no"?>
<svg width="44px" height="44px" viewBox="0 0 44 44" version="1.1" xmlns="http://www.w3.org/2000/svg" xmlns:xlink="http://www.w3.org/1999/xlink">
    <!-- Generator: Sketch 40 (33762) - http://www.bohemiancoding.com/sketch -->
    <title>checked</title>
    <desc>Created with Sketch.</desc>
    <defs></defs>
    <g id="Teacher" stroke="none" stroke-width="1" fill="none" fill-rule="evenodd">
        <g id="Basic" transform="translate(-699.000000, -888.000000)" fill="#FFFFFF">
            <g id="checked" transform="translate(699.000000, 888.000000)">
                <path d="M22,0 C9.9,0 0,9.9 0,22 C0,34.1 9.9,44 22,44 C34.1,44 44,34.1 44,22 C44,17.7 42.7875,13.80625 40.6875,10.40625 L39.3125,12 C41.0125,15 42,18.4 42,22 C42,33 33,42 22,42 C11,42 2,33 2,22 C2,11 11,2 22,2 C27.2,2 31.9,4.0125 35.5,7.3125 L36.8125,5.8125 C32.9125,2.2125 27.7,0 22,0 L22,0 Z M40.25,4.75 L20.90625,27.5625 L12.78125,19.96875 L11.40625,21.4375 L20.3125,29.71875 L21.09375,30.4375 L21.75,29.65625 L41.75,6.03125 L40.25,4.75 L40.25,4.75 Z" id="Shape"></path>
            </g>
        </g>
    </g>
</svg>