<svg width="22" height="22" viewBox="0 0 22 22" xmlns="http://www.w3.org/2000/svg"><title>password 1</title><g stroke="#4ABDAC" fill="none" fill-rule="evenodd"><path d="M12.438 11.391L3.21 20.622a1.294 1.294 0 1 1-1.83-1.83l9.232-9.232m-8.395 8.375l-.989-.988c-.505-.506-.084-.904.422-1.408l.507-.509c.505-.505.903-.927 1.408-.42l.99.989"/><path d="M15.868 12.584c-1.536 0-3.105-.722-4.416-2.035-1.157-1.156-1.87-2.546-2.01-3.911-.155-1.518.374-2.93 1.53-4.084C11.987 1.538 13.224 1 14.547 1c1.536 0 3.106.724 4.417 2.036 1.157 1.156 1.87 2.544 2.008 3.91.156 1.517-.373 2.93-1.528 4.084-1.016 1.017-2.253 1.554-3.577 1.554zM14.7 3.383c-.745 0-1.422.3-2.012.888-.658.659-.96 1.453-.875 2.296.084.811.525 1.655 1.245 2.375.812.812 1.756 1.26 2.659 1.26.744 0 1.421-.3 2.011-.89.659-.657.96-1.452.874-2.295-.083-.812-.524-1.656-1.244-2.375-.81-.812-1.756-1.26-2.658-1.26z"/></g></svg>