<svg width="23" height="23" viewBox="0 0 23 23" xmlns="http://www.w3.org/2000/svg"><title>Layer_1</title><path d="M7.015 14.22s1.014 1.771 1.258 2.235c.244.463.306.942.128 1.233-.27.44-2.73 4.14-2.948 4.451-.218.312-.842.462-1.453.033-.61-.426-3.026-2.394-3-3.227.027-.836.103-4.308 6.653-10.856 6.548-6.547 10.021-6.625 10.856-6.652.835-.026 2.804 2.389 3.23 3 .427.611.267 1.236-.033 1.452-.342.247-4.03 2.68-4.453 2.947-.288.184-.77.116-1.233-.128a137.443 137.443 0 0 1-2.235-1.257s-1.22.714-3.636 3.132C7.73 13.001 7.015 14.22 7.015 14.22z" stroke="#FFF" fill="none"/></svg>