<svg width="32" height="32" viewBox="0 0 32 32" xmlns="http://www.w3.org/2000/svg"><title>phone</title><path d="M18.886 22.407s2.53-1.448 3.193-1.796c.66-.35 1.345-.438 1.76-.184.63.385 5.915 3.9 6.36 4.212.445.312.66 1.202.047 2.075-.61.872-3.42 4.322-4.612 4.285-1.193-.038-6.153-.147-15.508-9.504C.774 12.141.663 7.179.625 5.986.587 4.794 4.037 1.982 4.909 1.372c.874-.61 1.766-.38 2.076.049.353.488 3.827 5.756 4.21 6.36.262.412.166 1.1-.184 1.762-.347.662-1.796 3.193-1.796 3.193s1.021 1.741 4.475 5.195c3.454 3.453 5.196 4.476 5.196 4.476z" stroke="#FFF" fill="none"/></svg>