<svg width="24" height="22" viewBox="0 0 24 22" xmlns="http://www.w3.org/2000/svg"><title>business</title><g stroke="#4ABDAC" fill="none" fill-rule="evenodd"><path d="M8.273 3.727C8.273 2.221 9.838 1 11.909 1s3.636 1.22 3.636 2.727m7.273 16.363a.91.91 0 0 1-.909.91h-20A.909.909 0 0 1 1 20.09V4.637a.91.91 0 0 1 .91-.909h20c.501 0 .908.407.908.91V20.09z"/><path d="M10.09 13.273H1.91a.909.909 0 0 1-.91-.91m21.818.001a.909.909 0 0 1-.909.909h-8.182"/><path d="M13.727 13.727a.91.91 0 0 1-.909.91H11a.909.909 0 0 1-.91-.91v-.909a.91.91 0 0 1 .91-.909h1.818a.91.91 0 0 1 .91.91v.908z"/></g></svg>