<?xml version="1.0" encoding="UTF-8" standalone="no"?>
<svg width="100px" height="117px" viewBox="0 0 100 117" version="1.1" xmlns="http://www.w3.org/2000/svg" xmlns:xlink="http://www.w3.org/1999/xlink">
    <!-- Generator: Sketch 40 (33762) - http://www.bohemiancoding.com/sketch -->
    <title>webcam</title>
    <desc>Created with Sketch.</desc>
    <defs></defs>
    <g id="Teacher" stroke="none" stroke-width="1" fill="none" fill-rule="evenodd">
        <g id="Request" transform="translate(-686.000000, -547.000000)" fill="#4ABDAC">
            <g id="webcam" transform="translate(686.000000, 547.000000)">
                <path d="M50,0 C22.4139643,0 0,22.4780042 0,50.1428571 C0,67.2609887 8.57311595,82.3563907 21.6517857,91.40625 C17.8068643,92.3276608 14.4226143,93.4624558 11.7559524,94.7640306 C9.8150831,95.711351 8.22113952,96.7007937 6.99404762,97.9725765 C5.76695571,99.2443594 4.91071429,100.880342 4.91071429,102.673469 C4.91071429,105.423447 6.81647381,107.603515 9.30059524,109.239796 C11.7847167,110.876077 15.1016119,112.149211 19.1220238,113.269133 C27.1628476,115.508973 37.994831,116.850765 50,116.850765 C62.005169,116.850765 72.8371524,115.508973 80.8779762,113.269133 C84.8983881,112.149211 88.2152833,110.876077 90.6994048,109.239796 C93.1835262,107.603515 95.0892857,105.423447 95.0892857,102.673469 C95.0892857,100.887808 94.2247333,99.2410093 93.0059524,97.9725765 C91.7871714,96.7041437 90.24585,95.7093715 88.3184524,94.7640306 C85.6373881,93.4490366 82.2367143,92.335156 78.3482143,91.40625 C91.4268833,82.3563907 100,67.2609887 100,50.1428571 C100,22.4780042 77.5860357,0 50,0 L50,0 Z M50,4.7755102 C75.0125119,4.7755102 95.2380952,25.0588809 95.2380952,50.1428571 C95.2380952,75.2268334 75.0125119,95.5102041 50,95.5102041 C24.9874881,95.5102041 4.76190476,75.2268334 4.76190476,50.1428571 C4.76190476,25.0588809 24.9874881,4.7755102 50,4.7755102 L50,4.7755102 Z M50,21.4897959 C34.2486381,21.4897959 21.4285714,34.3464913 21.4285714,50.1428571 C21.4285714,65.9392229 34.2486381,78.7959184 50,78.7959184 C65.7513619,78.7959184 78.5714286,65.9392229 78.5714286,50.1428571 C78.5714286,34.3464913 65.7513619,21.4897959 50,21.4897959 L50,21.4897959 Z M50,26.2653061 C63.1778381,26.2653061 73.8095238,36.9273681 73.8095238,50.1428571 C73.8095238,63.3583462 63.1778381,74.0204082 50,74.0204082 C36.8221619,74.0204082 26.1904762,63.3583462 26.1904762,50.1428571 C26.1904762,36.9273681 36.8221619,26.2653061 50,26.2653061 L50,26.2653061 Z M50,31.0408163 C39.5084929,31.0408163 30.952381,39.6213743 30.952381,50.1428571 C30.952381,60.66434 39.5084929,69.244898 50,69.244898 C60.4915071,69.244898 69.047619,60.66434 69.047619,50.1428571 C69.047619,39.6213743 60.4915071,31.0408163 50,31.0408163 L50,31.0408163 Z M64.2857143,50.1428571 C64.2857143,58.0834633 57.9179833,64.4693878 50,64.4693878 C42.0820167,64.4693878 35.7142857,58.0834633 35.7142857,50.1428571 C35.7142857,42.202251 42.0820167,35.8163265 50,35.8163265 C57.9179833,35.8163265 64.2857143,42.202251 64.2857143,50.1428571 Z M27.4553571,94.838648 C34.242231,98.2964683 41.8753786,100.285714 50,100.285714 C58.1246214,100.285714 65.757769,98.2964683 72.5446429,94.838648 C78.3421786,95.8627346 83.1370571,97.2373533 86.3095238,98.7933673 C87.9243881,99.5854168 89.1284524,100.475402 89.8065476,101.181122 C90.4846429,101.886843 90.625,102.318508 90.625,102.673469 C90.625,103.220982 90.0969786,104.213791 88.2440476,105.434311 C86.3911167,106.654831 83.4224452,107.900927 79.6875,108.941327 C72.2176095,111.022129 61.6662595,112.373724 50,112.373724 C38.3337405,112.373724 27.7823905,111.022129 20.3125,108.941327 C16.5775548,107.900927 13.6088845,106.654831 11.7559524,105.434311 C9.90302024,104.213791 9.375,103.220982 9.375,102.673469 C9.375,102.316424 9.58296905,101.816337 10.2678571,101.106505 C10.9527445,100.396673 12.136405,99.5882128 13.764881,98.7933673 C16.9365429,97.2453069 21.6863643,95.8580594 27.4553571,94.838648 L27.4553571,94.838648 Z" id="Shape"></path>
            </g>
        </g>
    </g>
</svg>