<?xml version="1.0" encoding="UTF-8" standalone="no"?>
<svg width="20px" height="20px" viewBox="0 0 20 20" version="1.1" xmlns="http://www.w3.org/2000/svg" xmlns:xlink="http://www.w3.org/1999/xlink">
    <!-- Generator: Sketch 40.1 (33804) - http://www.bohemiancoding.com/sketch -->
    <title>ruble</title>
    <desc>Created with Sketch.</desc>
    <defs></defs>
    <g id="Teacher" stroke="none" stroke-width="1" fill="none" fill-rule="evenodd">
        <g id="Settings-Information" transform="translate(-622.000000, -282.000000)" fill="#4ABDAC">
            <g id="ruble" transform="translate(622.000000, 282.000000)">
                <path d="M10,0 C4.48208792,0 0,4.48208792 0,10 C0,15.5179121 4.48208792,20 10,20 C15.5179121,20 20,15.5179121 20,10 C20,4.48208792 15.5179121,0 10,0 L10,0 Z M10,0.833333333 C15.0675454,0.833333333 19.1666667,4.93245458 19.1666667,10 C19.1666667,15.0675454 15.0675454,19.1666667 10,19.1666667 C4.93245458,19.1666667 0.833333333,15.0675454 0.833333333,10 C0.833333333,4.93245458 4.93245458,0.833333333 10,0.833333333 L10,0.833333333 Z M7.91666667,5 L7.91666667,5.41666667 L7.91666667,11.25 L6.66666667,11.25 L6.66666667,12.0833333 L7.91666667,12.0833333 L7.91666667,12.9166667 L6.66666667,12.9166667 L6.66666667,13.75 L7.91666667,13.75 L7.91666667,15.4166667 L8.75,15.4166667 L8.75,13.75 L10.4166667,13.75 L10.4166667,12.9166667 L8.75,12.9166667 L8.75,12.0833333 L10.625,12.0833333 C12.5760333,12.0833333 14.1666667,10.4927 14.1666667,8.54166667 C14.1666667,6.59063333 12.5760333,5 10.625,5 L8.33333333,5 L7.91666667,5 L7.91666667,5 Z M8.75,5.83333333 L10.625,5.83333333 C12.1256333,5.83333333 13.3333333,7.04103333 13.3333333,8.54166667 C13.3333333,10.0423 12.1256333,11.25 10.625,11.25 L8.75,11.25 L8.75,5.83333333 L8.75,5.83333333 Z" id="Shape"></path>
            </g>
        </g>
    </g>
</svg>