<svg width="22" height="19" viewBox="0 0 22 19" xmlns="http://www.w3.org/2000/svg"><title>group</title><g stroke="#FFF" fill="none" fill-rule="evenodd"><path d="M10.923 12.829c-.06-.669-.037-1.135-.037-1.746.303-.159.845-1.171.937-2.027.238-.02.613-.251.723-1.168.06-.492-.176-.77-.32-.856.387-1.165 1.192-4.768-1.487-5.14-.276-.485-.982-.73-1.9-.73-3.671.068-4.114 2.772-3.31 5.87-.142.087-.378.364-.319.856.11.917.485 1.149.723 1.168.092.855.655 1.868.959 2.027 0 .61.023 1.077-.038 1.746C6.128 14.782 1.226 14.233 1 18h15.756c-.226-3.767-5.106-3.218-5.833-5.171z"/><path d="M15.687 15.756h5.215c-.189-3.172-4.3-2.71-4.912-4.354-.05-.564-.03-.956-.03-1.47.255-.135.711-.987.788-1.707.2-.017.516-.212.61-.984.05-.415-.15-.648-.27-.721.325-.982 1.004-4.015-1.253-4.33-.232-.407-.827-.613-1.6-.613-.976.018-1.68.257-2.167.658"/></g></svg>