<?xml version="1.0" encoding="UTF-8" standalone="no"?>
<svg width="22px" height="22px" viewBox="0 0 22 22" version="1.1" xmlns="http://www.w3.org/2000/svg" xmlns:xlink="http://www.w3.org/1999/xlink">
    <!-- Generator: Sketch 40 (33762) - http://www.bohemiancoding.com/sketch -->
    <title>wallet</title>
    <desc>Created with Sketch.</desc>
    <defs></defs>
    <g id="Teacher" stroke="none" stroke-width="1" fill="none" fill-rule="evenodd">
        <g id="Settings-Common" transform="translate(-680.000000, -494.000000)">
            <g id="Group-Copy-7" transform="translate(670.000000, 486.000000)">
                <g id="wallet" transform="translate(11.000000, 9.000000)">
                    <g id="Layer_1">
                        <path d="M17.0731707,4.87804878 L2.43902439,4.87804878 C0.938536585,4.87804878 0,6.34146341 0,7.31707317 L0,17.7482927 C0,18.9921951 1.00780488,20 2.25170732,20 L17.2604878,20 C18.5039024,20 19.5121951,18.9921951 19.5121951,17.7482927 L19.5121951,7.24195122 C19.5121951,5.9995122 18.3165854,4.87804878 17.0731707,4.87804878 L17.0731707,4.87804878 Z" id="Shape" stroke="#4ABDAC"></path>
                        <path d="M15.6097561,3.41463415 L15.6097561,1.78439024 C15.6097561,0.159512195 15.2590244,-0.309268293 13.2429268,0.222439024 C11.7619512,0.613170732 3.09609756,3.01560976 3.09609756,3.01560976 C0.427317073,4.02146341 0.02,4.87756098 0.02,6.82829268 L0,8.02585366" id="Shape" stroke="#4ABDAC"></path>
                        <path d="M16.342439,13.6585366 C15.6687805,13.6585366 15.1219512,13.1131707 15.1219512,12.4395122 C15.1219512,11.7658537 15.6687805,11.2195122 16.342439,11.2195122 C17.0141463,11.2195122 17.5609756,11.7658537 17.5609756,12.4395122 C17.5609756,13.1131707 17.0141463,13.6585366 16.342439,13.6585366 L16.342439,13.6585366 Z" id="Shape" fill="#4ABDAC"></path>
                    </g>
                </g>
            </g>
        </g>
    </g>
</svg>